<svg xmlns="http://www.w3.org/2000/svg" width="24" height="24" viewBox="0 0 24 24" fill="none" stroke="#10b981" stroke-width="2" stroke-linecap="round" stroke-linejoin="round">
  <path d="M12 20h.01"/>
  <path d="M8.5 16.429a5 5 0 0 1 7 0"/>
  <path d="M5 12.859a10 10 0 0 1 5.17-2.69"/>
  <path d="M19 12.859a10 10 0 0 0-2.007-1.523"/>
  <path d="M2 8.82a15 15 0 0 1 4.177-1.643"/>
  <path d="M22 8.82a15 15 0 0 0-4.177-1.643"/>
  <path d="M8.5 16.429l-3.5 3.5"/>
  <path d="M15.5 16.429l3.5 3.5"/>
  <path d="M2 2l3.5 3.5"/>
  <path d="M20.5 20.5l2-2"/>
  <path d="M21.5 2l-2 2"/>
</svg>
